# xmcd CD database file
#
# Track frame offsets:
#	150
#	18922
#	36458
#	53641
#	71164
#	86906
#	102850
#	120772
#	141087
#	158112
#	173284
#	189401
#
# Disc length: 2716 seconds
#
# Revision: 2
# Processed by: cddbd v1.4PL0 Copyright (c) Steve Scherf et al.
# Submitted via: CDex 1.40Release
#
DISCID=930a9a0c
DTITLE=Lydia Miller - Singin' To The Scarecrow
DYEAR=2000
DGENRE=Country
TTITLE0=Singin' To The Scarecrow
TTITLE1=She Made The Devil Cry
TTITLE2=Out Of Loneliness
TTITLE3=She Misses Him
TTITLE4=You Could Have Used Me Last Night
TTITLE5=Golden Chains
TTITLE6=Before The Next Teardrop Falls
TTITLE7=Man With A Memory, Woman With A Past
TTITLE8=After Her, Before You
TTITLE9=Thought You Were Never Gonna Love Me
TTITLE10=When You're Not Trying To
TTITLE11=Just When I Think
EXTD=YEAR: 2000 ID3G: 2
EXTT0=
EXTT1=
EXTT2=
EXTT3=
EXTT4=
EXTT5=
EXTT6=
EXTT7=
EXTT8=
EXTT9=
EXTT10=
EXTT11=
PLAYORDER=
